<?xml version="1.0" encoding="UTF-8" standalone="no"?>
<!DOCTYPE svg PUBLIC "-//W3C//DTD SVG 1.1//EN"
 "http://www.w3.org/Graphics/SVG/1.1/DTD/svg11.dtd">
<!-- Generated by graphviz version 2.26.3 (20100126.1600)
 -->
<!-- Title: G Pages: 1 -->
<svg width="88pt" height="264pt"
 viewBox="0.00 0.00 88.00 264.00" xmlns="http://www.w3.org/2000/svg" xmlns:xlink="http://www.w3.org/1999/xlink">
<g id="graph1" class="graph" transform="scale(1 1) rotate(0) translate(4 260)">
<title>G</title>
<polygon fill="white" stroke="white" points="-4,5 -4,-260 85,-260 85,5 -4,5"/>
<!-- Node1 -->
<g id="node1" class="node"><title>Node1</title>
<polygon fill="#bfbfbf" stroke="black" points="2.5,-179 2.5,-255 77.5,-255 77.5,-179 2.5,-179"/>
<text text-anchor="middle" x="40" y="-242" font-family="Helvetica,sans-Serif" font-size="10.00">godb::IObject</text>
<polyline fill="none" stroke="black" points="2.5,-234 77.5,-234 "/>
<text text-anchor="middle" x="40" y="-221" font-family="Helvetica,sans-Serif" font-size="10.00"> </text>
<polyline fill="none" stroke="black" points="2.5,-213 77.5,-213 "/>
<text text-anchor="start" x="10.5" y="-200" font-family="Helvetica,sans-Serif" font-size="10.00">+ save()</text>
<text text-anchor="start" x="10.5" y="-187" font-family="Helvetica,sans-Serif" font-size="10.00">+ load()</text>
</g>
<!-- Node2 -->
<g id="node3" class="node"><title>Node2</title>
<polygon fill="white" stroke="#bfbfbf" points="0,-0.5 0,-141.5 80,-141.5 80,-0.5 0,-0.5"/>
<text text-anchor="middle" x="40" y="-128.5" font-family="Helvetica,sans-Serif" font-size="10.00">TestObject</text>
<polyline fill="none" stroke="#bfbfbf" points="0,-120.5 80,-120.5 "/>
<text text-anchor="start" x="8" y="-107.5" font-family="Helvetica,sans-Serif" font-size="10.00">+ msg</text>
<text text-anchor="start" x="8" y="-94.5" font-family="Helvetica,sans-Serif" font-size="10.00">+ i</text>
<text text-anchor="start" x="8" y="-81.5" font-family="Helvetica,sans-Serif" font-size="10.00">+ a</text>
<text text-anchor="start" x="8" y="-68.5" font-family="Helvetica,sans-Serif" font-size="10.00">+ tab</text>
<text text-anchor="start" x="8" y="-55.5" font-family="Helvetica,sans-Serif" font-size="10.00">+ vect</text>
<polyline fill="none" stroke="#bfbfbf" points="0,-47.5 80,-47.5 "/>
<text text-anchor="start" x="8" y="-34.5" font-family="Helvetica,sans-Serif" font-size="10.00">+ TestObject()</text>
<text text-anchor="start" x="8" y="-21.5" font-family="Helvetica,sans-Serif" font-size="10.00">+ save()</text>
<text text-anchor="start" x="8" y="-8.5" font-family="Helvetica,sans-Serif" font-size="10.00">+ load()</text>
</g>
<!-- Node1&#45;&gt;Node2 -->
<g id="edge2" class="edge"><title>Node1&#45;&gt;Node2</title>
<path fill="none" stroke="midnightblue" d="M40,-168.419C40,-159.8 40,-150.667 40,-141.584"/>
<polygon fill="none" stroke="midnightblue" points="36.5001,-168.64 40,-178.64 43.5001,-168.64 36.5001,-168.64"/>
</g>
</g>
</svg>
