<?xml version="1.0" encoding="UTF-8" standalone="no"?>
<!DOCTYPE svg PUBLIC "-//W3C//DTD SVG 1.1//EN"
 "http://www.w3.org/Graphics/SVG/1.1/DTD/svg11.dtd">
<!-- Generated by graphviz version 2.26.3 (20100126.1600)
 -->
<!-- Title: G Pages: 1 -->
<svg width="160pt" height="404pt"
 viewBox="0.00 0.00 160.00 404.00" xmlns="http://www.w3.org/2000/svg" xmlns:xlink="http://www.w3.org/1999/xlink">
<g id="graph1" class="graph" transform="scale(1 1) rotate(0) translate(4 400)">
<title>G</title>
<polygon fill="white" stroke="white" points="-4,5 -4,-400 157,-400 157,5 -4,5"/>
<!-- Node1 -->
<g id="node1" class="node"><title>Node1</title>
<polygon fill="#bfbfbf" stroke="black" points="-0.5,-1 -0.5,-77 152.5,-77 152.5,-1 -0.5,-1"/>
<text text-anchor="middle" x="76" y="-64" font-family="Helvetica,sans-Serif" font-size="10.00">godb::TResource&lt; std::string &gt;</text>
<polyline fill="none" stroke="black" points="-0.5,-56 152.5,-56 "/>
<text text-anchor="middle" x="76" y="-43" font-family="Helvetica,sans-Serif" font-size="10.00"> </text>
<polyline fill="none" stroke="black" points="-0.5,-35 152.5,-35 "/>
<text text-anchor="start" x="7.5" y="-22" font-family="Helvetica,sans-Serif" font-size="10.00">+ TResource()</text>
<text text-anchor="start" x="7.5" y="-9" font-family="Helvetica,sans-Serif" font-size="10.00">+ operator=()</text>
</g>
<!-- Node2 -->
<g id="node2" class="node"><title>Node2</title>
<a xlink:href="classgodb_1_1_a_resource.html" target="_top" xlink:title="Abstract class to store the data.">
<polygon fill="white" stroke="black" points="30,-114.5 30,-255.5 122,-255.5 122,-114.5 30,-114.5"/>
<text text-anchor="middle" x="76" y="-242.5" font-family="Helvetica,sans-Serif" font-size="10.00">godb::AResource</text>
<polyline fill="none" stroke="black" points="30,-234.5 122,-234.5 "/>
<text text-anchor="start" x="38" y="-221.5" font-family="Helvetica,sans-Serif" font-size="10.00"># _size</text>
<text text-anchor="start" x="38" y="-208.5" font-family="Helvetica,sans-Serif" font-size="10.00"># _tab</text>
<text text-anchor="start" x="38" y="-195.5" font-family="Helvetica,sans-Serif" font-size="10.00"># _ptr</text>
<polyline fill="none" stroke="black" points="30,-187.5 122,-187.5 "/>
<text text-anchor="start" x="38" y="-174.5" font-family="Helvetica,sans-Serif" font-size="10.00">+ ~AResource()</text>
<text text-anchor="start" x="38" y="-161.5" font-family="Helvetica,sans-Serif" font-size="10.00">+ getSize()</text>
<text text-anchor="start" x="38" y="-148.5" font-family="Helvetica,sans-Serif" font-size="10.00">+ getPtr()</text>
<text text-anchor="start" x="38" y="-135.5" font-family="Helvetica,sans-Serif" font-size="10.00">+ operator==()</text>
<text text-anchor="start" x="38" y="-122.5" font-family="Helvetica,sans-Serif" font-size="10.00"># isTab()</text>
</a>
</g>
<!-- Node2&#45;&gt;Node1 -->
<g id="edge2" class="edge"><title>Node2&#45;&gt;Node1</title>
<path fill="none" stroke="midnightblue" d="M76,-103.96C76,-94.6164 76,-85.451 76,-77.0857"/>
<polygon fill="none" stroke="midnightblue" points="72.5001,-104.138 76,-114.138 79.5001,-104.138 72.5001,-104.138"/>
</g>
<!-- Node3 -->
<g id="node4" class="node"><title>Node3</title>
<a xlink:href="classgodb_1_1_i_resource.html" target="_top" xlink:title="Interface for the database resources.">
<polygon fill="white" stroke="black" points="31.5,-293 31.5,-395 120.5,-395 120.5,-293 31.5,-293"/>
<text text-anchor="middle" x="76" y="-382" font-family="Helvetica,sans-Serif" font-size="10.00">godb::IResource</text>
<polyline fill="none" stroke="black" points="31.5,-374 120.5,-374 "/>
<text text-anchor="middle" x="76" y="-361" font-family="Helvetica,sans-Serif" font-size="10.00"> </text>
<polyline fill="none" stroke="black" points="31.5,-353 120.5,-353 "/>
<text text-anchor="start" x="39.5" y="-340" font-family="Helvetica,sans-Serif" font-size="10.00">+ getSize()</text>
<text text-anchor="start" x="39.5" y="-327" font-family="Helvetica,sans-Serif" font-size="10.00">+ getPtr()</text>
<text text-anchor="start" x="39.5" y="-314" font-family="Helvetica,sans-Serif" font-size="10.00">+ ~IResource()</text>
<text text-anchor="start" x="39.5" y="-301" font-family="Helvetica,sans-Serif" font-size="10.00"># isTab()</text>
</a>
</g>
<!-- Node3&#45;&gt;Node2 -->
<g id="edge4" class="edge"><title>Node3&#45;&gt;Node2</title>
<path fill="none" stroke="midnightblue" d="M76,-282.659C76,-273.86 76,-264.748 76,-255.785"/>
<polygon fill="none" stroke="midnightblue" points="72.5001,-282.816 76,-292.816 79.5001,-282.816 72.5001,-282.816"/>
</g>
</g>
</svg>
