<?xml version="1.0" encoding="UTF-8" standalone="no"?>
<!DOCTYPE svg PUBLIC "-//W3C//DTD SVG 1.1//EN"
 "http://www.w3.org/Graphics/SVG/1.1/DTD/svg11.dtd">
<!-- Generated by graphviz version 2.26.3 (20100126.1600)
 -->
<!-- Title: G Pages: 1 -->
<svg width="126pt" height="390pt"
 viewBox="0.00 0.00 126.00 390.00" xmlns="http://www.w3.org/2000/svg" xmlns:xlink="http://www.w3.org/1999/xlink">
<g id="graph1" class="graph" transform="scale(1 1) rotate(0) translate(4 386)">
<title>G</title>
<polygon fill="white" stroke="white" points="-4,5 -4,-386 123,-386 123,5 -4,5"/>
<!-- Node1 -->
<g id="node1" class="node"><title>Node1</title>
<polygon fill="#bfbfbf" stroke="black" points="0,-0.5 0,-63.5 118,-63.5 118,-0.5 0,-0.5"/>
<text text-anchor="middle" x="59" y="-50.5" font-family="Helvetica,sans-Serif" font-size="10.00">godb::SizableResource</text>
<polyline fill="none" stroke="black" points="0,-42.5 118,-42.5 "/>
<text text-anchor="middle" x="59" y="-29.5" font-family="Helvetica,sans-Serif" font-size="10.00"> </text>
<polyline fill="none" stroke="black" points="0,-21.5 118,-21.5 "/>
<text text-anchor="start" x="8" y="-8.5" font-family="Helvetica,sans-Serif" font-size="10.00">+ SizableResource()</text>
</g>
<!-- Node2 -->
<g id="node2" class="node"><title>Node2</title>
<a xlink:href="classgodb_1_1_a_resource.html" target="_top" xlink:title="Abstract class to store the data.">
<polygon fill="white" stroke="black" points="13,-100.5 13,-241.5 105,-241.5 105,-100.5 13,-100.5"/>
<text text-anchor="middle" x="59" y="-228.5" font-family="Helvetica,sans-Serif" font-size="10.00">godb::AResource</text>
<polyline fill="none" stroke="black" points="13,-220.5 105,-220.5 "/>
<text text-anchor="start" x="21" y="-207.5" font-family="Helvetica,sans-Serif" font-size="10.00"># _size</text>
<text text-anchor="start" x="21" y="-194.5" font-family="Helvetica,sans-Serif" font-size="10.00"># _tab</text>
<text text-anchor="start" x="21" y="-181.5" font-family="Helvetica,sans-Serif" font-size="10.00"># _ptr</text>
<polyline fill="none" stroke="black" points="13,-173.5 105,-173.5 "/>
<text text-anchor="start" x="21" y="-160.5" font-family="Helvetica,sans-Serif" font-size="10.00">+ ~AResource()</text>
<text text-anchor="start" x="21" y="-147.5" font-family="Helvetica,sans-Serif" font-size="10.00">+ getSize()</text>
<text text-anchor="start" x="21" y="-134.5" font-family="Helvetica,sans-Serif" font-size="10.00">+ getPtr()</text>
<text text-anchor="start" x="21" y="-121.5" font-family="Helvetica,sans-Serif" font-size="10.00">+ operator==()</text>
<text text-anchor="start" x="21" y="-108.5" font-family="Helvetica,sans-Serif" font-size="10.00"># isTab()</text>
</a>
</g>
<!-- Node2&#45;&gt;Node1 -->
<g id="edge2" class="edge"><title>Node2&#45;&gt;Node1</title>
<path fill="none" stroke="midnightblue" d="M59,-90.0622C59,-80.7193 59,-71.6599 59,-63.5847"/>
<polygon fill="none" stroke="midnightblue" points="55.5001,-90.2783 59,-100.278 62.5001,-90.2784 55.5001,-90.2783"/>
</g>
<!-- Node3 -->
<g id="node4" class="node"><title>Node3</title>
<a xlink:href="classgodb_1_1_i_resource.html" target="_top" xlink:title="Interface for the database resources.">
<polygon fill="white" stroke="black" points="14.5,-279 14.5,-381 103.5,-381 103.5,-279 14.5,-279"/>
<text text-anchor="middle" x="59" y="-368" font-family="Helvetica,sans-Serif" font-size="10.00">godb::IResource</text>
<polyline fill="none" stroke="black" points="14.5,-360 103.5,-360 "/>
<text text-anchor="middle" x="59" y="-347" font-family="Helvetica,sans-Serif" font-size="10.00"> </text>
<polyline fill="none" stroke="black" points="14.5,-339 103.5,-339 "/>
<text text-anchor="start" x="22.5" y="-326" font-family="Helvetica,sans-Serif" font-size="10.00">+ getSize()</text>
<text text-anchor="start" x="22.5" y="-313" font-family="Helvetica,sans-Serif" font-size="10.00">+ getPtr()</text>
<text text-anchor="start" x="22.5" y="-300" font-family="Helvetica,sans-Serif" font-size="10.00">+ ~IResource()</text>
<text text-anchor="start" x="22.5" y="-287" font-family="Helvetica,sans-Serif" font-size="10.00"># isTab()</text>
</a>
</g>
<!-- Node3&#45;&gt;Node2 -->
<g id="edge4" class="edge"><title>Node3&#45;&gt;Node2</title>
<path fill="none" stroke="midnightblue" d="M59,-268.659C59,-259.86 59,-250.748 59,-241.785"/>
<polygon fill="none" stroke="midnightblue" points="55.5001,-268.816 59,-278.816 62.5001,-268.816 55.5001,-268.816"/>
</g>
</g>
</svg>
