<?xml version="1.0" encoding="UTF-8" standalone="no"?>
<!DOCTYPE svg PUBLIC "-//W3C//DTD SVG 1.1//EN"
 "http://www.w3.org/Graphics/SVG/1.1/DTD/svg11.dtd">
<!-- Generated by graphviz version 2.26.3 (20100126.1600)
 -->
<!-- Title: G Pages: 1 -->
<svg width="440pt" height="404pt"
 viewBox="0.00 0.00 440.00 404.00" xmlns="http://www.w3.org/2000/svg" xmlns:xlink="http://www.w3.org/1999/xlink">
<g id="graph1" class="graph" transform="scale(1 1) rotate(0) translate(4 400)">
<title>G</title>
<polygon fill="white" stroke="white" points="-4,5 -4,-400 437,-400 437,5 -4,5"/>
<!-- Node1 -->
<g id="node1" class="node"><title>Node1</title>
<polygon fill="#bfbfbf" stroke="black" points="154.5,-293 154.5,-395 243.5,-395 243.5,-293 154.5,-293"/>
<text text-anchor="middle" x="199" y="-382" font-family="Helvetica,sans-Serif" font-size="10.00">godb::IResource</text>
<polyline fill="none" stroke="black" points="154.5,-374 243.5,-374 "/>
<text text-anchor="middle" x="199" y="-361" font-family="Helvetica,sans-Serif" font-size="10.00"> </text>
<polyline fill="none" stroke="black" points="154.5,-353 243.5,-353 "/>
<text text-anchor="start" x="162.5" y="-340" font-family="Helvetica,sans-Serif" font-size="10.00">+ getSize()</text>
<text text-anchor="start" x="162.5" y="-327" font-family="Helvetica,sans-Serif" font-size="10.00">+ getPtr()</text>
<text text-anchor="start" x="162.5" y="-314" font-family="Helvetica,sans-Serif" font-size="10.00">+ ~IResource()</text>
<text text-anchor="start" x="162.5" y="-301" font-family="Helvetica,sans-Serif" font-size="10.00"># isTab()</text>
</g>
<!-- Node2 -->
<g id="node3" class="node"><title>Node2</title>
<a xlink:href="classgodb_1_1_a_resource.html" target="_top" xlink:title="Abstract class to store the data.">
<polygon fill="white" stroke="black" points="153,-114.5 153,-255.5 245,-255.5 245,-114.5 153,-114.5"/>
<text text-anchor="middle" x="199" y="-242.5" font-family="Helvetica,sans-Serif" font-size="10.00">godb::AResource</text>
<polyline fill="none" stroke="black" points="153,-234.5 245,-234.5 "/>
<text text-anchor="start" x="161" y="-221.5" font-family="Helvetica,sans-Serif" font-size="10.00"># _size</text>
<text text-anchor="start" x="161" y="-208.5" font-family="Helvetica,sans-Serif" font-size="10.00"># _tab</text>
<text text-anchor="start" x="161" y="-195.5" font-family="Helvetica,sans-Serif" font-size="10.00"># _ptr</text>
<polyline fill="none" stroke="black" points="153,-187.5 245,-187.5 "/>
<text text-anchor="start" x="161" y="-174.5" font-family="Helvetica,sans-Serif" font-size="10.00">+ ~AResource()</text>
<text text-anchor="start" x="161" y="-161.5" font-family="Helvetica,sans-Serif" font-size="10.00">+ getSize()</text>
<text text-anchor="start" x="161" y="-148.5" font-family="Helvetica,sans-Serif" font-size="10.00">+ getPtr()</text>
<text text-anchor="start" x="161" y="-135.5" font-family="Helvetica,sans-Serif" font-size="10.00">+ operator==()</text>
<text text-anchor="start" x="161" y="-122.5" font-family="Helvetica,sans-Serif" font-size="10.00"># isTab()</text>
</a>
</g>
<!-- Node1&#45;&gt;Node2 -->
<g id="edge2" class="edge"><title>Node1&#45;&gt;Node2</title>
<path fill="none" stroke="midnightblue" d="M199,-282.659C199,-273.86 199,-264.748 199,-255.785"/>
<polygon fill="none" stroke="midnightblue" points="195.5,-282.816 199,-292.816 202.5,-282.816 195.5,-282.816"/>
</g>
<!-- Node3 -->
<g id="node5" class="node"><title>Node3</title>
<a xlink:href="classgodb_1_1_sizable_resource.html" target="_top" xlink:title="Store data as a resource when only it&#39;s size is known.">
<polygon fill="white" stroke="black" points="0,-7.5 0,-70.5 118,-70.5 118,-7.5 0,-7.5"/>
<text text-anchor="middle" x="59" y="-57.5" font-family="Helvetica,sans-Serif" font-size="10.00">godb::SizableResource</text>
<polyline fill="none" stroke="black" points="0,-49.5 118,-49.5 "/>
<text text-anchor="middle" x="59" y="-36.5" font-family="Helvetica,sans-Serif" font-size="10.00"> </text>
<polyline fill="none" stroke="black" points="0,-28.5 118,-28.5 "/>
<text text-anchor="start" x="8" y="-15.5" font-family="Helvetica,sans-Serif" font-size="10.00">+ SizableResource()</text>
</a>
</g>
<!-- Node2&#45;&gt;Node3 -->
<g id="edge4" class="edge"><title>Node2&#45;&gt;Node3</title>
<path fill="none" stroke="midnightblue" d="M145.82,-129.541C126.705,-109.607 105.812,-87.818 89.3119,-70.611"/>
<polygon fill="none" stroke="midnightblue" points="143.323,-131.994 152.771,-136.79 148.376,-127.149 143.323,-131.994"/>
</g>
<!-- Node4 -->
<g id="node7" class="node"><title>Node4</title>
<a xlink:href="classgodb_1_1_t_resource.html" target="_top" xlink:title="Store data as a resource with a known type.">
<polygon fill="white" stroke="black" points="135.5,-1 135.5,-77 262.5,-77 262.5,-1 135.5,-1"/>
<text text-anchor="middle" x="199" y="-64" font-family="Helvetica,sans-Serif" font-size="10.00">godb::TResource&lt; Any &gt;</text>
<polyline fill="none" stroke="black" points="135.5,-56 262.5,-56 "/>
<text text-anchor="middle" x="199" y="-43" font-family="Helvetica,sans-Serif" font-size="10.00"> </text>
<polyline fill="none" stroke="black" points="135.5,-35 262.5,-35 "/>
<text text-anchor="start" x="143.5" y="-22" font-family="Helvetica,sans-Serif" font-size="10.00">+ TResource()</text>
<text text-anchor="start" x="143.5" y="-9" font-family="Helvetica,sans-Serif" font-size="10.00">+ operator=()</text>
</a>
</g>
<!-- Node2&#45;&gt;Node4 -->
<g id="edge6" class="edge"><title>Node2&#45;&gt;Node4</title>
<path fill="none" stroke="midnightblue" d="M199,-103.96C199,-94.6164 199,-85.451 199,-77.0857"/>
<polygon fill="none" stroke="midnightblue" points="195.5,-104.138 199,-114.138 202.5,-104.138 195.5,-104.138"/>
</g>
<!-- Node5 -->
<g id="node9" class="node"><title>Node5</title>
<a xlink:href="classgodb_1_1_t_resource_3_01std_1_1string_01_4.html" target="_top" xlink:title="Store data as a resource for the special relation between std::string and char *.">
<polygon fill="white" stroke="black" points="279.5,-1 279.5,-77 432.5,-77 432.5,-1 279.5,-1"/>
<text text-anchor="middle" x="356" y="-64" font-family="Helvetica,sans-Serif" font-size="10.00">godb::TResource&lt; std::string &gt;</text>
<polyline fill="none" stroke="black" points="279.5,-56 432.5,-56 "/>
<text text-anchor="middle" x="356" y="-43" font-family="Helvetica,sans-Serif" font-size="10.00"> </text>
<polyline fill="none" stroke="black" points="279.5,-35 432.5,-35 "/>
<text text-anchor="start" x="287.5" y="-22" font-family="Helvetica,sans-Serif" font-size="10.00">+ TResource()</text>
<text text-anchor="start" x="287.5" y="-9" font-family="Helvetica,sans-Serif" font-size="10.00">+ operator=()</text>
</a>
</g>
<!-- Node2&#45;&gt;Node5 -->
<g id="edge8" class="edge"><title>Node2&#45;&gt;Node5</title>
<path fill="none" stroke="midnightblue" d="M252.634,-135.124C272.997,-116.188 295.849,-94.9367 314.878,-77.2406"/>
<polygon fill="none" stroke="midnightblue" points="250.196,-132.612 245.256,-141.985 254.962,-137.738 250.196,-132.612"/>
</g>
</g>
</svg>
