<?xml version="1.0" encoding="UTF-8" standalone="no"?>
<!DOCTYPE svg PUBLIC "-//W3C//DTD SVG 1.1//EN"
 "http://www.w3.org/Graphics/SVG/1.1/DTD/svg11.dtd">
<!-- Generated by graphviz version 2.26.3 (20100126.1600)
 -->
<!-- Title: G Pages: 1 -->
<svg width="416pt" height="110pt"
 viewBox="0.00 0.00 416.00 110.00" xmlns="http://www.w3.org/2000/svg" xmlns:xlink="http://www.w3.org/1999/xlink">
<g id="graph1" class="graph" transform="scale(1 1) rotate(0) translate(4 106)">
<title>G</title>
<polygon fill="white" stroke="white" points="-4,5 -4,-106 413,-106 413,5 -4,5"/>
<!-- Node1 -->
<g id="node1" class="node"><title>Node1</title>
<a xlink:href="classgodb_1_1_i_resource.html" target="_top" xlink:title="Interface for the database resources.">
<polygon fill="white" stroke="black" points="0.5,-40.5 0.5,-61.5 89.5,-61.5 89.5,-40.5 0.5,-40.5"/>
<text text-anchor="middle" x="45" y="-48.5" font-family="Helvetica,sans-Serif" font-size="10.00">godb::IResource</text>
</a>
</g>
<!-- Node2 -->
<g id="node3" class="node"><title>Node2</title>
<a xlink:href="classgodb_1_1_a_resource.html" target="_top" xlink:title="Abstract class to store the data.">
<polygon fill="white" stroke="black" points="126,-40.5 126,-61.5 218,-61.5 218,-40.5 126,-40.5"/>
<text text-anchor="middle" x="172" y="-48.5" font-family="Helvetica,sans-Serif" font-size="10.00">godb::AResource</text>
</a>
</g>
<!-- Node1&#45;&gt;Node2 -->
<g id="edge2" class="edge"><title>Node1&#45;&gt;Node2</title>
<path fill="none" stroke="midnightblue" d="M99.8388,-51C108.532,-51 117.445,-51 125.912,-51"/>
<polygon fill="midnightblue" stroke="midnightblue" points="99.7755,-47.5001 89.7754,-51 99.7754,-54.5001 99.7755,-47.5001"/>
</g>
<!-- Node3 -->
<g id="node5" class="node"><title>Node3</title>
<a xlink:href="classgodb_1_1_sizable_resource.html" target="_top" xlink:title="Store data as a resource when only it&#39;s size is known.">
<polygon fill="white" stroke="black" points="272,-80.5 272,-101.5 390,-101.5 390,-80.5 272,-80.5"/>
<text text-anchor="middle" x="331" y="-88.5" font-family="Helvetica,sans-Serif" font-size="10.00">godb::SizableResource</text>
</a>
</g>
<!-- Node2&#45;&gt;Node3 -->
<g id="edge4" class="edge"><title>Node2&#45;&gt;Node3</title>
<path fill="none" stroke="midnightblue" d="M223.609,-63.9835C244.85,-69.3271 269.132,-75.4358 289.228,-80.4913"/>
<polygon fill="midnightblue" stroke="midnightblue" points="224.327,-60.5551 213.775,-61.5095 222.619,-67.3435 224.327,-60.5551"/>
</g>
<!-- Node4 -->
<g id="node7" class="node"><title>Node4</title>
<a xlink:href="classgodb_1_1_t_resource.html" target="_top" xlink:title="Store data as a resource with a known type.">
<polygon fill="white" stroke="black" points="267.5,-40.5 267.5,-61.5 394.5,-61.5 394.5,-40.5 267.5,-40.5"/>
<text text-anchor="middle" x="331" y="-48.5" font-family="Helvetica,sans-Serif" font-size="10.00">godb::TResource&lt; Any &gt;</text>
</a>
</g>
<!-- Node2&#45;&gt;Node4 -->
<g id="edge6" class="edge"><title>Node2&#45;&gt;Node4</title>
<path fill="none" stroke="midnightblue" d="M228.718,-51C241.248,-51 254.603,-51 267.387,-51"/>
<polygon fill="midnightblue" stroke="midnightblue" points="228.417,-47.5001 218.417,-51 228.417,-54.5001 228.417,-47.5001"/>
</g>
<!-- Node5 -->
<g id="node9" class="node"><title>Node5</title>
<a xlink:href="classgodb_1_1_t_resource_3_01std_1_1string_01_4.html" target="_top" xlink:title="Store data as a resource for the special relation between std::string and char *.">
<polygon fill="white" stroke="black" points="254.5,-0.5 254.5,-21.5 407.5,-21.5 407.5,-0.5 254.5,-0.5"/>
<text text-anchor="middle" x="331" y="-8.5" font-family="Helvetica,sans-Serif" font-size="10.00">godb::TResource&lt; std::string &gt;</text>
</a>
</g>
<!-- Node2&#45;&gt;Node5 -->
<g id="edge8" class="edge"><title>Node2&#45;&gt;Node5</title>
<path fill="none" stroke="midnightblue" d="M223.609,-38.0165C244.85,-32.6729 269.132,-26.5642 289.228,-21.5087"/>
<polygon fill="midnightblue" stroke="midnightblue" points="222.619,-34.6565 213.775,-40.4905 224.327,-41.4449 222.619,-34.6565"/>
</g>
</g>
</svg>
